<?xml version="1.0" encoding="UTF-8" standalone="no"?>
<svg width="13px" height="23px" viewBox="0 0 13 23" version="1.1" xmlns="http://www.w3.org/2000/svg" xmlns:xlink="http://www.w3.org/1999/xlink" xmlns:sketch="http://www.bohemiancoding.com/sketch/ns">
    <!-- Generator: Sketch 3.3.3 (12081) - http://www.bohemiancoding.com/sketch -->
    <title>Facebook</title>
    <desc>Created with Sketch.</desc>
    <defs></defs>
    <g id="Page-1" stroke="none" stroke-width="1" fill="none" fill-rule="evenodd" sketch:type="MSPage">
        <g id="Desktop" sketch:type="MSArtboardGroup" transform="translate(-301.000000, -387.000000)" fill="#748C9F">
            <path d="M312.57883,387.004623 L309.697357,387 C306.46012,387 304.368076,389.146368 304.368076,392.468442 L304.368076,394.98976 L301.470883,394.98976 C301.220532,394.98976 301.0178,395.192723 301.0178,395.443075 L301.0178,399.096178 C301.0178,399.346529 301.220763,399.549261 301.470883,399.549261 L304.368076,399.549261 L304.368076,408.767202 C304.368076,409.017554 304.570808,409.220286 304.82116,409.220286 L308.601172,409.220286 C308.851524,409.220286 309.054255,409.017323 309.054255,408.767202 L309.054255,399.549261 L312.441749,399.549261 C312.692101,399.549261 312.894833,399.346529 312.894833,399.096178 L312.89622,395.443075 C312.89622,395.322869 312.848369,395.207749 312.763531,395.12268 C312.678693,395.037611 312.563111,394.98976 312.442905,394.98976 L309.054255,394.98976 L309.054255,392.852408 C309.054255,391.82511 309.299059,391.303601 310.637274,391.303601 L312.578368,391.302908 C312.828488,391.302908 313.03122,391.099945 313.03122,390.849824 L313.03122,387.457707 C313.03122,387.207817 312.82872,387.005086 312.57883,387.004623 L312.57883,387.004623 Z" id="Facebook" sketch:type="MSShapeGroup"></path>
        </g>
    </g>
</svg>