<?xml version="1.0" encoding="UTF-8" standalone="no"?>
<svg width="25px" height="20px" viewBox="0 0 25 20" version="1.1" xmlns="http://www.w3.org/2000/svg" xmlns:xlink="http://www.w3.org/1999/xlink" xmlns:sketch="http://www.bohemiancoding.com/sketch/ns">
    <!-- Generator: Sketch 3.3.3 (12081) - http://www.bohemiancoding.com/sketch -->
    <title>Twitter</title>
    <desc>Created with Sketch.</desc>
    <defs></defs>
    <g id="Page-1" stroke="none" stroke-width="1" fill="none" fill-rule="evenodd" sketch:type="MSPage">
        <g id="Desktop" sketch:type="MSArtboardGroup" transform="translate(-713.000000, -388.000000)" fill="#748C9F">
            <path d="M737.375,390.379839 C736.477865,390.780683 735.515251,391.05253 734.503848,391.173896 C735.536559,390.550321 736.327074,389.561245 736.70174,388.386305 C735.733033,388.963775 734.663759,389.383092 733.524427,389.610402 C732.612077,388.628996 731.314347,388.017711 729.874948,388.017711 C727.113483,388.017711 724.874449,390.275422 724.874449,393.058394 C724.874449,393.453092 724.918618,393.838594 725.003931,394.207229 C720.84879,393.996787 717.164301,391.989438 714.698324,388.939197 C714.267261,389.68257 714.022037,390.548755 714.022037,391.473373 C714.022037,393.222731 714.905472,394.766265 716.245858,395.669317 C715.426388,395.641687 714.655668,395.414378 713.980934,395.036546 L713.980934,395.099518 C713.980934,397.541526 715.705147,399.579598 717.991379,400.043454 C717.572503,400.157108 717.130806,400.22008 716.673854,400.22008 C716.350965,400.22008 716.03871,400.187831 715.732549,400.126386 C716.369206,402.130683 718.215294,403.588193 720.402552,403.628153 C718.69204,404.979719 716.535251,405.782972 714.192662,405.782972 C713.789041,405.782972 713.391474,405.758394 713.00004,405.713855 C715.213186,407.146827 717.840628,407.982329 720.664544,407.982329 C729.86284,407.982329 734.890781,400.29996 734.890781,393.63743 L734.874013,392.984699 C735.856422,392.278153 736.70632,391.390442 737.375,390.379839 L737.375,390.379839 Z" id="Twitter" sketch:type="MSShapeGroup"></path>
        </g>
    </g>
</svg>